<?xml version="1.0" encoding="utf-8"?>
<!-- Generator: $$$/GeneralStr/196=Adobe Illustrator 27.6.0, SVG Export Plug-In . SVG Version: 6.00 Build 0)  -->
<svg version="1.1" id="vector" xmlns="http://www.w3.org/2000/svg" xmlns:xlink="http://www.w3.org/1999/xlink" x="0px" y="0px"
	 viewBox="0 0 432 432" style="enable-background:new 0 0 432 432;" xml:space="preserve">
<style type="text/css">
	.st0{fill:#C1E8FF;}
	.st1{fill:#219BCC;fill-opacity:0.6;}
	.st2{fill:#219BCC;fill-opacity:0.8;}
	.st3{fill:#219BCC;fill-opacity:0.5;}
	.st4{fill:#219BCC;fill-opacity:0.7;}
	.st5{fill:#219BCC;}
	.st6{fill:#00668B;fill-opacity:0.6;}
	.st7{fill:#00668B;fill-opacity:0.4;}
	.st8{fill:#00668B;fill-opacity:0.8;}
	.st9{fill:#00668B;}
</style>
<path class="st0" d="M323,425H109C52.7,425,7,379.3,7,323V109C7,52.7,52.7,7,109,7h214c56.3,0,102,45.7,102,102v214
	C425,379.3,379.3,425,323,425z"/>
<g id="g_0" transform="translation(0, 17)">
	<g transform="scale(0, 0.88)">
		<path class="st1" d="M68.6,149.4c-4.7,4.6-4.7,12,0,16.5c3.2,3.3,3.9,3.4,24.1,3.4s21-0.1,24.1-3.4c2.3-2.2,3.4-4.8,3.4-8.3
			s-1.1-6.1-3.4-8.3c-3.2-3.3-3.9-3.4-24.1-3.4S71.8,146.1,68.6,149.4z"/>
		<path class="st2" d="M134.7,149.4c-2.3,2.2-3.4,4.8-3.4,8.3s1.1,6.1,3.4,8.3c3.2,3.3,3.9,3.4,24.1,3.4s20.9-0.1,24.1-3.4
			c2.3-2.2,3.4-4.8,3.4-8.3s-1.1-6.1-3.4-8.3c-3.2-3.3-3.9-3.4-24.1-3.4S137.9,146.1,134.7,149.4z"/>
		<path class="st1" d="M38.3,190.7c-4.7,4.6-4.7,12,0,16.5c3.2,3.3,3.9,3.4,24.1,3.4s20.9-0.1,24.1-3.4c2.3-2.2,3.4-4.8,3.4-8.3
			s-1.1-6.1-3.4-8.3c-3.2-3.3-3.9-3.4-24.1-3.4S41.4,187.4,38.3,190.7z"/>
		<path class="st2" d="M101.7,190.7c-2.3,2.2-3.4,4.8-3.4,8.3s1.1,6.1,3.4,8.3c3.2,3.3,4.3,3.4,18.6,3.4s15.4-0.1,18.6-3.4
			c2.3-2.2,3.4-4.8,3.4-8.3s-1.1-6.1-3.4-8.3c-3.2-3.3-4.3-3.4-18.6-3.4S104.8,187.4,101.7,190.7z"/>
		<path class="st3" d="M31.4,238.9c-4.7,4.6-4.7,12,0,16.5c3,3.2,4.4,3.5,15.2,3.5s12.1-0.3,15.2-3.4c2.3-2.2,3.5-4.8,3.5-8.3
			s-1.1-6.1-3.5-8.3c-3-3.2-4.4-3.4-15.2-3.4S34.4,235.8,31.4,238.9z"/>
		<path class="st4" d="M78.2,238.9c-4.7,4.6-4.7,12,0,16.5c3.2,3.3,3.9,3.5,24.1,3.5s20.9-0.1,24.1-3.4c2.3-2.2,3.5-4.8,3.5-8.3
			s-1.1-6.1-3.4-8.3c-3.2-3.3-3.9-3.4-24.1-3.4S81.4,235.6,78.2,238.9z"/>
		<path class="st1" d="M52,289.9c-4.7,4.5-4.7,12,0,16.5c2.8,2.9,4.7,3.5,11.7,3.5c10.3,0,15.2-3.7,15.2-11.7s-4.8-11.7-15.2-11.7
			C56.7,286.5,54.8,287,52,289.9z"/>
		<path class="st4" d="M92,289.9c-4.7,4.5-4.7,12,0,16.5c3.2,3.3,3.9,3.5,24.1,3.5s20.9-0.1,24.1-3.5c2.3-2.2,3.4-4.8,3.4-8.3
			c0-3.5-1.1-6.1-3.4-8.3c-3.2-3.3-3.9-3.5-24.1-3.5S95.2,286.6,92,289.9z"/>
		<path class="st1" d="M87.9,339.5c-4.7,4.5-4.7,12,0,16.5c3.2,3.3,4.3,3.5,18.6,3.5s15.4-0.1,18.6-3.5c2.3-2.2,3.5-4.8,3.5-8.3
			s-1.1-6.1-3.4-8.3c-3.2-3.3-4.3-3.5-18.6-3.5C92.2,336.1,91.1,336.2,87.9,339.5z"/>
		<path class="st2" d="M145.8,339.5c-2.3,2.2-3.4,4.8-3.4,8.3s1.1,6.1,3.4,8.3c3.2,3.3,3.9,3.5,24.1,3.5s20.9-0.1,24.1-3.5
			c2.3-2.2,3.4-4.8,3.4-8.3s-1.1-6.1-3.4-8.3c-3.2-3.3-3.9-3.5-24.1-3.5S148.9,336.2,145.8,339.5z"/>
	</g>
	<g transform="scale(0, 0.88)">
		<path class="st5" d="M209.1,139.2c-47,4.7-85.3,38-97.2,84.6c-3.9,15.2-4,38.6,0,53.7c12.7,50.3,56.9,85,108,85
			c24.2-0.1,32.5-3.9,32.5-14.7c0-4.4-0.8-6.5-3.4-9c-3.4-3.3-4.1-3.3-22.5-3c-22.1,0.5-28.1-0.5-44.2-8.3
			c-21.4-10.2-38.9-31.8-44.9-55.5c-2.6-10.5-2.6-32.2,0-42.7c7.4-29.5,32-54.2,61.3-62c4.3-1.1,13.6-2.1,21.4-2.1s17.1,1,21.4,2.1
			c29.6,7.9,53.6,32.1,61.2,62.2c2.8,10.6,3,33.6,0.4,33.6c-1,0-6.1-4.4-11.3-9.8c-11.9-12.1-16.7-14.5-23.3-11.7
			c-5.6,2.3-7.7,5.8-7.7,12.8c0,5,1.2,6.5,24.9,29.6c13.6,13.5,26.3,24.9,28.2,25.4c1.8,0.4,4.8,0.4,6.8,0
			c1.9-0.5,14.6-11.4,28.2-24.5c26.9-25.6,29.5-29.2,25.5-36.8c-2.6-5.1-5.9-7-12.1-7c-4,0-6.5,1.6-16,10.5
			c-6.2,5.6-12.1,10.1-13,9.8c-1.1-0.3-1.8-5-1.9-13.5C329.7,182.6,273.5,132.7,209.1,139.2L209.1,139.2z"/>
		<path class="st5" d="M207.1,224c-20.8,10.9-22.1,39.8-2.2,51.9c19.7,12.3,44.4-0.5,46-23.7c1.1-16.4-11.4-30.4-28.4-31.7
			C215.9,220.2,213.4,220.7,207.1,224L207.1,224z M226.4,245.1c1.5,1.5,2.8,4,2.8,5.5s-1.2,4-2.8,5.5c-1.5,1.5-4,2.8-5.5,2.8
			c-1.5,0-4-1.2-5.5-2.8c-1.5-1.5-2.8-4-2.8-5.5s1.2-4,2.8-5.5c1.5-1.5,4-2.8,5.5-2.8C222.4,242.4,224.9,243.6,226.4,245.1z"/>
	</g>
	<g transform="scale(0, 0.88)">
		<path class="st6" d="M230.8,70.4c-1,1-0.8,2.8,0.7,6.1c2.2,4.6,2.2,4.7-2.1,9c-9.2,9.5-9.1,17.8,0.4,22.6
			c7.3,3.7,33.1,3.9,40.9,0.4c9.4-4.1,10.2-12.1,2.3-20.9c-4-4.7-4.1-5-2.1-9c1.2-2.2,2.2-5.1,2.2-6.3c0-3.6-4-2.2-6.3,2.2
			c-1.6,3.4-2.8,4.1-5.1,3.3c-6.5-1.9-14.7-2.3-18.7-1s-4.4,1.2-6.3-2.5C234.2,69.4,232.7,68.5,230.8,70.4L230.8,70.4z M244,92.7
			c0.6,2.9-1.9,5.1-4.8,4c-1.9-0.7-2.5-4.8-0.8-6.5C240,88.6,243.6,90.1,244,92.7z M263.3,92.7c0.5,2.9-1.9,5.1-4.8,4
			c-1.9-0.7-2.5-4.8-0.8-6.5C259.3,88.6,262.9,90.1,263.3,92.7z"/>
		<path class="st7" d="M139,71.4c-0.6,0.7,1.6,3.4,4.7,6.1c5.4,4.6,5.5,4.8,5.5,13.9c0,8,0.4,9.7,3.4,12.5c3.2,3.3,4.1,3.4,19.3,3.4
			s16.1-0.1,19.3-3.4c3.2-3,3.4-4.4,3.4-15.2s-0.3-12.1-3.4-15.2c-3.3-3.4-3.7-3.4-27.4-3.4C150.6,70.1,139.4,70.7,139,71.4z"/>
		<path class="st8" d="M312.5,80c-6.6,3.9-8.1,10.8-3.5,16.7c3.6,4.6,8.7,5.7,13.9,3c7.6-4,8.4-13.2,1.6-18.6
			C320.6,78.1,316.6,77.7,312.5,80L312.5,80z"/>
		<path class="st8" d="M308.4,107.6c-9.2,5.1-15,14.3-12.8,20.5c2.2,6.3,8.8,8.4,25.2,7.9c15.2-0.4,18.7-1.9,21.5-9.1
			c1.9-5.1-4.5-14.7-12.8-19C325,105.5,312.2,105.4,308.4,107.6L308.4,107.6z"/>
		<path class="st9" d="M352.5,153.5c-3.3,3.2-3.5,4.1-3.5,19.3c0,15.2,0.1,16.1,3.5,19.3c3.2,3.3,3.9,3.4,24.1,3.4s21-0.1,24.1-3.4
			c3.2-3,3.5-4.4,3.5-15.2s-0.3-12.1-3.5-15.2c-2.8-2.9-4.7-3.4-11-3.4c-6.9,0-8.1-0.4-11.3-4.1c-3.2-3.9-4-4.1-13-4.1
			C357,150,355.4,150.5,352.5,153.5z"/>
	</g>
</g>
</svg>
